<svg width="30" height="30" viewBox="0 0 30 30" fill="none" xmlns="http://www.w3.org/2000/svg">
<g filter="url(#filter0_i_6769_1408)">
<path d="M29.9998 14.9878C30.0025 18.432 28.8199 21.7723 26.6504 24.4481C24.4808 27.1234 21.4568 28.9705 18.0859 29.6791C14.7155 30.3874 11.2032 29.9148 8.14041 28.3395C5.07673 26.7638 2.64927 24.1828 1.2647 21.0287C-0.119434 17.8747 -0.376453 14.3402 0.538156 11.0195C1.45189 7.6984 3.48097 4.79312 6.28414 2.79197C9.08775 0.79083 12.4944 -0.184871 15.9325 0.0289454C19.3701 0.243198 22.6293 1.63431 25.1628 3.96753C26.6861 5.3713 27.9027 7.07485 28.7348 8.97126C29.567 10.8681 29.9981 12.9164 29.9998 14.9878Z" fill="#25252C"/>
<path d="M29.9998 15.558C29.8903 18.499 28.9176 21.3428 27.2032 23.7353C25.4883 26.1279 23.1079 27.9632 20.3576 29.0127C17.6072 30.063 14.609 30.2807 11.7355 29.6393C8.86212 28.9983 6.24091 27.5256 4.19874 25.4062C2.15571 23.2868 0.782485 20.6136 0.248381 17.7193C-0.284851 14.8249 0.0446022 11.8376 1.19703 9.12951C2.34902 6.42103 4.27292 4.11138 6.72832 2.48812C9.18415 0.864866 12.0632 -0.000436195 15.0074 1.64956e-07C19.0345 0.150544 22.8461 1.8554 25.6419 4.75676C28.4376 7.65811 29.9998 11.5295 29.9998 15.558Z" fill="url(#paint0_linear_6769_1408)"/>
<path d="M25.7125 14.9802C25.7221 18.0007 24.5697 20.9016 22.507 23.0477C20.4443 25.1932 17.6399 26.4089 14.7093 26.4277C11.7787 26.446 8.96023 25.2665 6.87225 23.1467C4.78427 21.0273 3.59693 18.1408 3.57031 15.1203V14.9802C3.57031 11.9541 4.7367 9.05186 6.81334 6.91195C8.8891 4.77205 11.7054 3.57031 14.6416 3.57031H14.7786C17.6913 3.60609 20.4731 4.82397 22.5201 6.95995C24.5671 9.0955 25.7147 11.9768 25.7138 14.9794L25.7125 14.9802Z" fill="#565863"/>
<path d="M22.3351 6.84426L6.79419 22.6488C4.75683 20.5939 3.59611 17.8095 3.56295 14.8951L3.56251 14.7576C3.55858 11.7974 4.7145 8.95754 6.77499 6.86171C8.83592 4.76587 11.6334 3.58596 14.5514 3.58247L14.6871 3.58203C17.5592 3.61258 20.3048 4.7842 22.3351 6.84426Z" fill="#303035" fill-opacity="0.65"/>
<path d="M22.8556 6.60569L6.42665 22.857C5.3772 22.4281 5.526 20.7267 4.64062 20.0002L20.2882 4.58203C20.9864 5.50231 22.4437 5.51392 22.8556 6.60569Z" fill="#9DA7AC" fill-opacity="0.03"/>
<path d="M26.6603 14.9871C26.6603 16.5152 26.3597 18.0285 25.7749 19.4401C25.1902 20.8518 24.3332 22.1347 23.2528 23.2155C22.1719 24.296 20.8895 25.153 19.4774 25.7377C18.0658 26.3228 16.5529 26.6235 15.0248 26.6235C14.804 26.6235 14.5849 26.6174 14.3672 26.6052C17.3357 26.438 20.1267 25.1407 22.1689 22.9803C24.2106 20.8199 25.3482 17.9604 25.3482 14.9875C25.3482 12.015 24.2106 9.15515 22.1689 6.99429C20.1267 4.83388 17.3357 3.53702 14.3672 3.36945C14.5849 3.35767 14.804 3.35156 15.0248 3.35156C18.1107 3.35156 21.0701 4.5773 23.2523 6.75953C25.4346 8.94177 26.6603 11.9012 26.6603 14.9871Z" fill="black"/>
</g>
<path fill-rule="evenodd" clip-rule="evenodd" d="M14.9387 22.2441C10.7514 20.1574 8.65509 17.2909 8.64942 13.643C8.64811 12.943 8.64811 11.795 8.64942 10.1997L14.9387 7.92578V22.2441Z" fill="white" fill-opacity="0.94"/>
<g filter="url(#filter1_d_6769_1408)">
<path fill-rule="evenodd" clip-rule="evenodd" d="M14.9453 17.8464V15.0079L20.1153 9.81216L21.1778 10.1997L21.1787 11.5825L14.9453 17.8464ZM14.9453 20.3769L21.1652 14.1273C20.9828 17.5453 18.9096 20.2508 14.9453 22.2441V20.3769ZM14.9453 12.4774V7.92578L18.2678 9.13842L14.9453 12.4766V12.4774Z" fill="url(#paint1_linear_6769_1408)"/>
</g>
<defs>
<filter id="filter0_i_6769_1408" x="-9" y="-6" width="39" height="36" filterUnits="userSpaceOnUse" color-interpolation-filters="sRGB">
<feFlood flood-opacity="0" result="BackgroundImageFix"/>
<feBlend mode="normal" in="SourceGraphic" in2="BackgroundImageFix" result="shape"/>
<feColorMatrix in="SourceAlpha" type="matrix" values="0 0 0 0 0 0 0 0 0 0 0 0 0 0 0 0 0 0 127 0" result="hardAlpha"/>
<feOffset dx="-9" dy="-6"/>
<feGaussianBlur stdDeviation="6"/>
<feComposite in2="hardAlpha" operator="arithmetic" k2="-1" k3="1"/>
<feColorMatrix type="matrix" values="0 0 0 0 0 0 0 0 0 0 0 0 0 0 0 0 0 0 0.55 0"/>
<feBlend mode="normal" in2="shape" result="effect1_innerShadow_6769_1408"/>
</filter>
<filter id="filter1_d_6769_1408" x="11.9453" y="5.92578" width="12.2344" height="20.3164" filterUnits="userSpaceOnUse" color-interpolation-filters="sRGB">
<feFlood flood-opacity="0" result="BackgroundImageFix"/>
<feColorMatrix in="SourceAlpha" type="matrix" values="0 0 0 0 0 0 0 0 0 0 0 0 0 0 0 0 0 0 127 0" result="hardAlpha"/>
<feOffset dy="1"/>
<feGaussianBlur stdDeviation="1.5"/>
<feColorMatrix type="matrix" values="0 0 0 0 0.958333 0 0 0 0 0.127778 0 0 0 0 0.127778 0 0 0 0.05 0"/>
<feBlend mode="normal" in2="BackgroundImageFix" result="effect1_dropShadow_6769_1408"/>
<feBlend mode="normal" in="SourceGraphic" in2="effect1_dropShadow_6769_1408" result="shape"/>
</filter>
<linearGradient id="paint0_linear_6769_1408" x1="6.3068" y1="2.55663" x2="20.2838" y2="29.9997" gradientUnits="userSpaceOnUse">
<stop stop-color="#606166"/>
<stop offset="1" stop-color="#21232C"/>
</linearGradient>
<linearGradient id="paint1_linear_6769_1408" x1="14.2695" y1="24.064" x2="24.2117" y2="19.5103" gradientUnits="userSpaceOnUse">
<stop stop-color="#FFB070"/>
<stop offset="1" stop-color="#FF8989"/>
</linearGradient>
</defs>
</svg>
