<svg width="206" height="167" viewBox="0 0 206 167" fill="none" xmlns="http://www.w3.org/2000/svg">
<g clip-path="url(#clip0_410_1802)">
<path fill-rule="evenodd" clip-rule="evenodd" d="M140.272 88.3499L140.288 88.3399L140.291 88.3389C140.293 88.3382 140.294 88.3372 140.296 88.3359L140.272 88.3499V88.3499Z" fill="#2B2C2A"/>
<path d="M140.272 88.3499L140.288 88.3399L140.291 88.3389C140.293 88.3382 140.294 88.3372 140.296 88.3359L140.272 88.3499V88.3499Z" stroke="#F8F2E6" stroke-width="0.8" stroke-linecap="round" stroke-linejoin="round"/>
<path fill-rule="evenodd" clip-rule="evenodd" d="M140.3 88.3319L140.302 88.3309L140.328 88.3149H140.33C140.32 88.3203 140.31 88.326 140.3 88.3319Z" fill="#2B2C2A"/>
<path d="M140.3 88.3319L140.302 88.3309L140.328 88.3149H140.33C140.32 88.3203 140.31 88.326 140.3 88.3319Z" stroke="#F8F2E6" stroke-width="0.8" stroke-linecap="round" stroke-linejoin="round"/>
<path d="M90.6 103.9C113.299 103.9 131.7 85.4991 131.7 62.8002C131.7 40.1013 113.299 21.7002 90.6 21.7002C67.9011 21.7002 49.5 40.1013 49.5 62.8002C49.5 85.4991 67.9011 103.9 90.6 103.9Z" fill="#D5D5D8"/>
<path fill-rule="evenodd" clip-rule="evenodd" d="M90.1 21.7002C90.1 21.4002 90.3 21.2002 90.6 21.2002C95 21.2002 99.2 21.9002 103.2 23.2002C103.5 23.3002 103.6 23.6002 103.5 23.8002C103.4 24.1002 103.1 24.2002 102.9 24.1002C99 22.9002 94.9 22.2002 90.6 22.2002C90.3 22.2002 90.1 22.0002 90.1 21.7002ZM109.5 26.3002C109.6 26.1002 109.9 26.0002 110.2 26.1002C118.8 30.7002 125.6 38.2002 129.3 47.3002C129.4 47.6002 129.3 47.8002 129 48.0002C128.7 48.1002 128.5 48.0002 128.3 47.7002C124.7 38.8002 118.1 31.5002 109.7 27.0002C109.4 26.9002 109.4 26.5002 109.5 26.3002ZM53.7 44.7002C53.9 44.8002 54.1 45.1002 53.9 45.4002C51.4 50.7002 50 56.6002 50 62.8002C50 63.1002 49.8 63.3002 49.5 63.3002C49.2 63.3002 49 63.1002 49 62.8002C49 56.4002 50.5 50.4002 53 45.0002C53.2 44.7002 53.5 44.6002 53.7 44.7002ZM131.7 62.3002C132 62.3002 132.2 62.5002 132.2 62.8002C132.2 72.6002 128.8 81.7002 123.1 88.8002C122.9 89.0002 122.6 89.1002 122.4 88.9002C122.2 88.7002 122.1 88.4002 122.3 88.2002C127.9 81.3002 131.2 72.4002 131.2 62.8002C131.2 62.5002 131.4 62.3002 131.7 62.3002ZM55.5 84.1002C55.7 84.0002 56 84.0002 56.2 84.3002C59.9 90.3002 65.1 95.2002 71.3 98.5002C71.5 98.6002 71.6 98.9002 71.5 99.2002C71.4 99.4002 71.1 99.5002 70.8 99.4002C64.5 96.0002 59.1 90.9002 55.3 84.8002C55.1 84.5002 55.2 84.2002 55.5 84.1002Z" fill="#2B2B3C"/>
<path d="M90.6002 93.2004C107.4 93.2004 121 79.6004 121 62.8004C121 46.0004 107.4 32.4004 90.6002 32.4004C73.8002 32.4004 60.2002 46.0004 60.2002 62.8004C60.2002 79.6004 73.8002 93.2004 90.6002 93.2004Z" fill="#2B2B3C"/>
<path d="M84.5 49.0003L82.4 50.4003C82.2 50.6003 82.2 50.7003 82.4 50.8003L82.6 51.0003L85.4 52.9003C85.4 52.9003 88.1 51.4003 88.7 51.1003C89.7 50.6003 90.8 50.4003 92 50.4003C92.8 50.5003 93.5 50.6003 94.3 50.7003C95.3 51.0003 96.2 51.4003 97 52.0003L97.8 52.5003L97.9 52.6003H98H98.1C98.1 52.6003 98.2 52.6003 98.2 52.5003L98.3 52.4003C98.5 52.1003 98.6 51.8003 98.7 51.5003C98.8 51.3003 98.8 51.0003 98.8 50.7003C98.8 50.3003 98.7 50.0003 98.6 49.6003C98.5 49.3003 98.2 49.0003 98 48.7003L97.5 48.2003C96.9 47.6003 96.1 47.1003 95.3 46.7003L94.7 46.4003C93.6 46.0003 92.5 45.8003 91.4 45.8003C90.1 46.1003 88 46.6003 84.5 49.0003Z" fill="#25DFB3"/>
<g opacity="0.9">
<path d="M76.3999 55.5004C76.3999 55.7004 76.3999 55.9004 76.3999 56.1004C76.4999 56.6004 76.7999 57.1004 77.1999 57.4004L77.9999 58.0004C81.8999 61.0004 85.9999 63.8004 89.9999 66.6004L90.5999 67.0004C90.8999 67.1004 91.1999 67.2004 91.4999 67.3004H91.5999C92.0999 67.3004 92.4999 67.1004 92.8999 66.9004L96.5999 64.3004C97.7999 63.4004 99.0999 62.5004 100.3 61.5004C100.7 61.2004 101.1 60.8004 101.4 60.5004C102.3 59.4004 102.9 58.1004 103.1 56.6004C103.1 56.1004 103.2 55.6004 103.2 55.1004V52.4004C103.2 52.3004 103.2 52.3004 103.2 52.2004C103.2 52.7004 103.1 53.3004 102.9 53.8004C102.4 55.3004 101.5 56.5004 100.2 57.4004C97.7999 59.1004 95.4999 60.8004 93.0999 62.5004L92.4999 62.8004C92.2999 62.9004 91.9999 63.0004 91.6999 63.0004H91.5999C91.4999 63.0004 91.2999 63.0004 91.1999 62.9004C91.0999 62.9004 90.9999 62.8004 90.8999 62.8004L89.9999 62.3004C87.0999 60.3004 84.1999 58.3004 81.3999 56.2004L77.6999 53.4004L77.1999 52.9004C76.9999 52.7004 76.7999 52.3004 76.6999 52.0004V51.9004C76.5999 51.8004 76.3999 55.5004 76.3999 55.5004Z" fill="url(#paint0_radial_410_1802)"/>
</g>
<g opacity="0.9">
<g opacity="0.9">
<path d="M102.9 63.1002C102.9 63.0002 103 62.8002 103.1 62.6002V65.0002C103.1 65.5002 103.1 65.9002 103 66.4002C102.8 68.0002 102 69.5002 100.7 70.5002L99.6 71.4002C98.3 72.3002 97 73.3002 95.7 74.2002L92.9 76.2002L92.7 76.3002C92.4 76.5002 92 76.6002 91.6 76.6002C91.4 76.6002 91.2 76.6002 91 76.5002C90.7 76.4002 90.4 76.3002 90.2 76.1002L81.7 70.2002L77.4 67.0002C77.2 66.8002 77 66.6002 76.8 66.4002C76.6 66.1002 76.5 65.9002 76.5 65.6002C76.5 65.4002 76.5 65.3002 76.5 65.1002V62.2002C76.5 62.3002 76.6 62.4002 76.7 62.5002C76.9 62.7002 77.1 62.9002 77.4 63.1002L80.2 65.2002C82.8 67.2002 85.5 69.1002 88.2 70.9002L90 72.0002L90.8 72.4002C91.1 72.5002 91.4 72.6002 91.8 72.5002C92.1 72.5002 92.4 72.4002 92.7 72.2002L93 72.0002L100 67.0002C100.6 66.6002 101.2 66.0002 101.6 65.4002C102.2 64.7002 102.6 63.9002 102.9 63.1002Z" fill="url(#paint1_radial_410_1802)"/>
</g>
</g>
<path d="M119 158.3C141.699 158.3 160.1 139.899 160.1 117.2C160.1 94.5012 141.699 76.1001 119 76.1001C96.301 76.1001 77.8999 94.5012 77.8999 117.2C77.8999 139.899 96.301 158.3 119 158.3Z" fill="#D5D5D8"/>
<path fill-rule="evenodd" clip-rule="evenodd" d="M118.5 76.1001C118.5 75.8001 118.7 75.6001 119 75.6001C123.4 75.6001 127.6 76.3001 131.6 77.6001C131.9 77.7001 132 78.0001 131.9 78.2001C131.8 78.5001 131.5 78.6001 131.3 78.5001C127.4 77.3001 123.3 76.6001 119 76.6001C118.8 76.6001 118.5 76.4001 118.5 76.1001ZM137.9 80.7001C138 80.5001 138.3 80.4001 138.6 80.5001C147.2 85.1001 154 92.6001 157.7 101.7C157.8 102 157.7 102.2 157.4 102.4C157.1 102.5 156.9 102.4 156.7 102.1C153.1 93.2001 146.5 85.8001 138.1 81.4001C137.9 81.3001 137.8 81.0001 137.9 80.7001ZM82.0999 99.2001C82.2999 99.3001 82.4999 99.6001 82.2999 99.9001C79.7999 105.2 78.3999 111.1 78.3999 117.3C78.3999 117.6 78.1999 117.8 77.8999 117.8C77.5999 117.8 77.3999 117.6 77.3999 117.3C77.3999 110.9 78.7999 104.9 81.3999 99.5001C81.5999 99.1001 81.8999 99.0001 82.0999 99.2001ZM160.1 116.7C160.4 116.7 160.6 116.9 160.6 117.2C160.6 127 157.2 136.1 151.5 143.2C151.3 143.4 151 143.5 150.8 143.3C150.6 143.1 150.5 142.8 150.7 142.6C156.3 135.7 159.6 126.8 159.6 117.2C159.6 116.9 159.8 116.7 160.1 116.7ZM83.8999 138.5C84.0999 138.4 84.3999 138.4 84.5999 138.7C88.2999 144.7 93.4999 149.6 99.6999 152.9C99.8999 153 99.9999 153.3 99.8999 153.6C99.7999 153.8 99.4999 153.9 99.1999 153.8C92.8999 150.4 87.4999 145.3 83.6999 139.2C83.5999 138.9 83.5999 138.6 83.8999 138.5Z" fill="#2B2B3C"/>
<path d="M119 147.6C135.8 147.6 149.4 134 149.4 117.2C149.4 100.4 135.8 86.8003 119 86.8003C102.2 86.8003 88.6001 100.4 88.6001 117.2C88.6001 134 102.2 147.6 119 147.6Z" fill="#2B2B3C"/>
<path fill-rule="evenodd" clip-rule="evenodd" d="M119.058 134C109.699 129.337 105.014 122.93 105.002 114.778C104.999 113.213 104.999 110.648 105.002 107.082L119.058 102V134Z" fill="white"/>
<path fill-rule="evenodd" clip-rule="evenodd" d="M118.987 124.172V117.828L130.541 106.216L132.916 107.082L132.918 110.172L118.987 124.172ZM118.987 129.828L132.887 115.86C132.48 123.499 127.847 129.546 118.987 134V129.828ZM118.987 112.172V102L126.412 104.71L118.987 112.171V112.172Z" fill="url(#paint2_linear_410_1802)"/>
<path d="M19 145.741H29.5188M24.2594 151V140.481M33.4812 145.741H44M38.7406 151V140.481M19 131.259H29.5188M24.2594 136.519V126M33.4812 131.259H44M38.7406 136.519V126" stroke="#DBDEE5"/>
<path d="M133 13.9289H142.836M137.918 18.8578V9M133 27.5H142.836M137.918 32.4289V22.5711M146.541 27.5H156.377M151.459 32.4289V22.5711M160.082 13.9289H169.918M165 18.8578V9M160.082 27.5H169.918M165 32.4289V22.5711M187.164 41.0711H197M192.082 46V36.1422" stroke="#DBDEE5"/>
</g>
<defs>
<radialGradient id="paint0_radial_410_1802" cx="0" cy="0" r="1" gradientUnits="userSpaceOnUse" gradientTransform="translate(86.2805 35.0584) rotate(55.0368) scale(46.0757 83.0195)">
<stop offset="0.4167" stop-color="white"/>
<stop offset="1" stop-color="#FAFAFA" stop-opacity="0.4"/>
</radialGradient>
<radialGradient id="paint1_radial_410_1802" cx="0" cy="0" r="1" gradientUnits="userSpaceOnUse" gradientTransform="translate(86.3351 46.2982) rotate(53.5777) scale(44.0916 80.8191)">
<stop offset="0.4167" stop-color="#E1F5FC"/>
<stop offset="1" stop-color="#FAFAFA" stop-opacity="0"/>
</radialGradient>
<linearGradient id="paint2_linear_410_1802" x1="111.162" y1="118.439" x2="134.791" y2="128.453" gradientUnits="userSpaceOnUse">
<stop stop-color="white" stop-opacity="0.6"/>
<stop offset="1" stop-color="white" stop-opacity="0.215"/>
</linearGradient>
<clipPath id="clip0_410_1802">
<rect width="206" height="167" fill="white"/>
</clipPath>
</defs>
</svg>
